<?xml version="1.0" encoding="utf-8"?>
<!-- Generator: Adobe Illustrator 21.0.2, SVG Export Plug-In . SVG Version: 6.00 Build 0)  -->
<svg version="1.1" id="Layer_1" xmlns="http://www.w3.org/2000/svg" xmlns:xlink="http://www.w3.org/1999/xlink" x="0px" y="0px"
	 viewBox="0 0 256 288" style="enable-background:new 0 0 256 288;" xml:space="preserve">
<style type="text/css">
	.st0{fill:none;stroke:#000000;stroke-width:2;stroke-miterlimit:10;}
	.st1{font-family:'MyriadPro-Regular';}
	.st2{font-size:12px;}
</style>
<path class="st0" d="M112.456,79.091c3.095-13.671,6.703-26.73,14.946-38.07c1.481-2.037,3.08-4.036,4.787-5.953
	c8.683-9.752,23.641-19.05,33.796-18.742c3.843,0.117,10.245,6.586,10.245,6.586s10.454-2.038,14.635-0.732
	c4.02,1.256,10.245,8.781,10.245,8.781s9.44,1.452,13.172,4.391c2.06,1.622,5.875,6.989,6.586,9.513
	c0.448,1.592,12.575,0.246,13.903,3.659c2.602,6.687-2.048,20.17-2.671,23.35c-2.451,12.506-33.917,59.338-59.528,61.533
	l-1.245,2.947c-16.078,27.375-30.753,55.572-50.257,80.622c-13.746,17.653-29.384,34.487-37.483,55.343"/>
<path class="st0" d="M130.917,36.573c-1.45-2.641-3.151-6.963-6.01-7.917c-3.106-1.036-6.599,0.661-8.637,3.223
	c-2.038,2.562-2.936,5.823-3.761,8.991c-3.906,15.002-8.727,30.147-11.528,45.395c-0.922,5.021-1.056,10.131-0.527,15.208
	s3.358,10.2,7.393,13.327l-0.1,5.738c-6.515,11.676-14.96,22.143-23.361,32.545C63,179.567,41.612,206.051,20.224,232.535"/>
<path class="st0" d="M101.59,130.48c19.757,2.195,46.832,36.588,42.442,52.686"/>
<path class="st0" d="M49.058,196.157c29.116,6.034,40.278,30.358,43.019,59.452"/>
<text transform="matrix(1 0 0 1 98.7829 153.2404)" class="st1 st2">1</text>
<text transform="matrix(1 0 0 1 125.7829 169.2404)" class="st1 st2">2</text>
<text transform="matrix(1 0 0 1 104.4494 197.5734)" class="st1 st2">3</text>
<text transform="matrix(1 0 0 1 75.7829 183.5734)" class="st1 st2">4</text>
</svg>
